<svg width="10" height="10" viewBox="0 0 10 10" fill="none" xmlns="http://www.w3.org/2000/svg">
<path fill-rule="evenodd" clip-rule="evenodd" d="M1.67146 10H8.32854C9.25257 10 10 9.25257 10 8.32854V1.67146C10 0.75154 9.24846 0 8.32854 0H1.67146C0.751541 0 0 0.75154 0 1.67146V8.32854C0 9.24846 0.751541 10 1.67146 10ZM3.18709 6.81729C3.67169 7.30189 4.31645 7.56883 5.00228 7.56883C5.68811 7.56883 6.32877 7.30189 6.81748 6.81729C7.30208 6.33269 7.56902 5.68793 7.56902 5.0021C7.56902 4.31627 7.30208 3.6715 6.81748 3.1869C6.33288 2.7023 5.68811 2.43536 5.00228 2.43536C4.31645 2.43536 3.67169 2.7023 3.18709 3.1869C2.70249 3.6715 2.43555 4.31627 2.43555 5.0021C2.43555 5.68793 2.70249 6.33269 3.18709 6.81729ZM2.98175 5.0021C2.98175 3.88506 3.88935 2.98156 5.00228 2.98156C6.11522 2.98156 7.01871 3.88916 7.02282 5.0021C7.02282 6.11914 6.11522 7.02263 5.00228 7.02263C3.88524 7.02263 2.98175 6.11503 2.98175 5.0021Z" fill="#343434"/>
<path d="M8.069 2.35101C8.34118 2.35101 8.56182 2.13036 8.56182 1.85818C8.56182 1.586 8.34118 1.36536 8.069 1.36536C7.79682 1.36536 7.57617 1.586 7.57617 1.85818C7.57617 2.13036 7.79682 2.35101 8.069 2.35101Z" fill="white"/>
</svg>
