<svg width="12" height="11" viewBox="0 0 12 11" fill="none" xmlns="http://www.w3.org/2000/svg">
<path d="M10.6258 3.16475C10.3463 2.54713 9.94509 1.99262 9.43567 1.51475C8.92624 1.04139 8.33567 0.667213 7.67747 0.405738C6.99673 0.135246 6.27542 0 5.53157 0C4.78771 0 4.0664 0.135246 3.38566 0.405738C2.72746 0.667213 2.13689 1.03689 1.62746 1.51475C1.11804 1.99262 0.716812 2.54713 0.437304 3.16475C0.148779 3.80492 0 4.49016 0 5.19344C0 6.42418 0.459832 7.60533 1.30286 8.54303L0.852045 11L3.25041 9.93156C3.96722 10.2381 4.7291 10.3914 5.52705 10.3914C6.27091 10.3914 6.99222 10.2561 7.67296 9.98566C8.33116 9.72418 8.92173 9.35451 9.43116 8.87664C9.94058 8.39877 10.3418 7.84426 10.6213 7.22664C10.9098 6.58647 11.0586 5.90123 11.0586 5.19795C11.0631 4.49016 10.9144 3.80943 10.6258 3.16475Z" fill="#343434"/>
<path d="M7.77673 6.23028C7.5423 6.11307 7.371 6.04094 7.24928 5.99586C7.17264 5.96881 6.99231 5.88766 6.92919 5.93725C6.73083 6.09954 6.51894 6.55938 6.29353 6.64504C5.73452 6.53684 5.21608 6.15364 4.81034 5.76143C4.63001 5.59012 4.29641 5.10323 4.22428 4.9725C4.21075 4.83725 4.45418 4.65692 4.50828 4.55323C4.78779 4.23766 4.57591 4.0393 4.53985 3.90856C4.47673 3.77332 4.36854 3.52987 4.27387 3.33151C4.19272 3.20077 4.17467 3.00692 4.03041 2.93479C3.41729 2.61922 3.06567 3.25036 2.92141 3.57946C2.05133 5.67577 7.28083 9.66553 8.34476 6.91553C8.39886 6.67659 8.37632 6.58643 8.29517 6.47823C8.13287 6.36553 7.94353 6.31594 7.77673 6.23028Z" fill="white"/>
</svg>
