<svg width="11" height="9" viewBox="0 0 11 9" fill="none" xmlns="http://www.w3.org/2000/svg">
<path d="M0 7.71004C1.18406 7.77251 2.21948 7.513 3.22926 6.82577C2.20923 6.66237 1.50187 6.22505 1.11743 5.32156C1.41473 5.28311 1.67615 5.3552 1.98369 5.23986C0.979035 4.82656 0.328053 4.20661 0.302424 3.13492C0.620225 3.15895 0.861141 3.35598 1.24045 3.32715C0.317804 2.48133 0.0358807 1.55861 0.615098 0.438862C1.57875 1.47692 2.70643 2.18337 4.08528 2.51497C4.16217 2.53419 4.23392 2.55341 4.31081 2.56783C4.66449 2.64472 5.08481 2.80812 5.3001 2.78409C5.66915 2.74084 5.3001 2.34196 5.39236 1.82293C5.68453 0.208184 7.58108 -0.527104 8.98556 0.419639C9.39562 0.698376 9.71855 0.69357 10.1235 0.525367C10.3336 0.438862 10.5489 0.352358 10.8001 0.251436C10.7437 0.712793 10.3644 0.9675 10.062 1.30871C10.4054 1.3808 10.6822 1.28949 11 1.19337C10.8924 1.52497 10.6258 1.7124 10.3849 1.89502C10.1337 2.08245 10.0363 2.27948 10.0261 2.58706C9.87232 7.24388 4.2288 10.8434 0.369063 7.97916C-0.00512207 7.70043 0.358807 7.97916 0 7.71004Z" fill="#343434"/>
</svg>
